optRun
version=1
nRows=201
nColumns=3
inDegrees=no
endheader
time	r_shoulder_elev	r_elbow_flex
        0.000000	        0.000000	        0.349066
        0.010000	       -0.021473	        0.341660
        0.020000	       -0.042668	        0.334364
        0.030000	       -0.063586	        0.327177
        0.040000	       -0.084228	        0.320100
        0.050000	       -0.104591	        0.313133
        0.060000	       -0.124678	        0.306274
        0.070000	       -0.144488	        0.299526
        0.080000	       -0.164020	        0.292887
        0.090000	       -0.183275	        0.286357
        0.100000	       -0.202253	        0.279937
        0.110000	       -0.220954	        0.273627
        0.120000	       -0.239377	        0.267426
        0.130000	       -0.257523	        0.261334
        0.140000	       -0.275392	        0.255352
        0.150000	       -0.292984	        0.249479
        0.160000	       -0.310299	        0.243716
        0.170000	       -0.327337	        0.238063
        0.180000	       -0.344097	        0.232519
        0.190000	       -0.360580	        0.227084
        0.200000	       -0.376786	        0.221759
        0.210000	       -0.392714	        0.216544
        0.220000	       -0.408366	        0.211438
        0.230000	       -0.423740	        0.206442
        0.240000	       -0.438837	        0.201555
        0.250000	       -0.453657	        0.196777
        0.260000	       -0.468200	        0.192109
        0.270000	       -0.482465	        0.187551
        0.280000	       -0.496454	        0.183102
        0.290000	       -0.510165	        0.178763
        0.300000	       -0.523599	        0.174533
        0.310000	       -0.536755	        0.170413
        0.320000	       -0.549635	        0.166402
        0.330000	       -0.562237	        0.162500
        0.340000	       -0.574562	        0.158709
        0.350000	       -0.586610	        0.155026
        0.360000	       -0.598381	        0.151454
        0.370000	       -0.609875	        0.147990
        0.380000	       -0.621091	        0.144636
        0.390000	       -0.632030	        0.141392
        0.400000	       -0.642692	        0.138257
        0.410000	       -0.653077	        0.135232
        0.420000	       -0.663184	        0.132316
        0.430000	       -0.673014	        0.129510
        0.440000	       -0.682567	        0.126814
        0.450000	       -0.691843	        0.124226
        0.460000	       -0.700842	        0.121749
        0.470000	       -0.709564	        0.119381
        0.480000	       -0.718008	        0.117122
        0.490000	       -0.726175	        0.114973
        0.500000	       -0.734065	        0.112933
        0.510000	       -0.741678	        0.111003
        0.520000	       -0.749013	        0.109182
        0.530000	       -0.756071	        0.107471
        0.540000	       -0.762853	        0.105870
        0.550000	       -0.769357	        0.104378
        0.560000	       -0.775583	        0.102995
        0.570000	       -0.781533	        0.101722
        0.580000	       -0.787205	        0.100558
        0.590000	       -0.792600	        0.099504
        0.600000	       -0.797718	        0.098560
        0.610000	       -0.802559	        0.097725
        0.620000	       -0.807122	        0.096999
        0.630000	       -0.811409	        0.096383
        0.640000	       -0.815418	        0.095877
        0.650000	       -0.819150	        0.095480
        0.660000	       -0.822604	        0.095192
        0.670000	       -0.825782	        0.095014
        0.680000	       -0.828682	        0.094946
        0.690000	       -0.831305	        0.094987
        0.700000	       -0.833651	        0.095138
        0.710000	       -0.835720	        0.095398
        0.720000	       -0.837512	        0.095767
        0.730000	       -0.839026	        0.096246
        0.740000	       -0.840263	        0.096835
        0.750000	       -0.841223	        0.097533
        0.760000	       -0.841906	        0.098341
        0.770000	       -0.842311	        0.099258
        0.780000	       -0.842440	        0.100285
        0.790000	       -0.842291	        0.101421
        0.800000	       -0.841865	        0.102666
        0.810000	       -0.841161	        0.104022
        0.820000	       -0.840181	        0.105486
        0.830000	       -0.838923	        0.107061
        0.840000	       -0.837388	        0.108744
        0.850000	       -0.835576	        0.110538
        0.860000	       -0.833487	        0.112440
        0.870000	       -0.831121	        0.114453
        0.880000	       -0.828477	        0.116574
        0.890000	       -0.825556	        0.118806
        0.900000	       -0.822358	        0.121146
        0.910000	       -0.818883	        0.123597
        0.920000	       -0.815130	        0.126157
        0.930000	       -0.811101	        0.128826
        0.940000	       -0.806794	        0.131605
        0.950000	       -0.802210	        0.134493
        0.960000	       -0.797349	        0.137491
        0.970000	       -0.792210	        0.140598
        0.980000	       -0.786794	        0.143815
        0.990000	       -0.781102	        0.147142
        1.000000	       -0.775132	        0.150577
        1.010000	       -0.768884	        0.154123
        1.020000	       -0.762360	        0.157778
        1.030000	       -0.755558	        0.161542
        1.040000	       -0.748479	        0.165416
        1.050000	       -0.741123	        0.169400
        1.060000	       -0.733490	        0.173493
        1.070000	       -0.725580	        0.177695
        1.080000	       -0.717392	        0.182007
        1.090000	       -0.708927	        0.186429
        1.100000	       -0.700185	        0.190960
        1.110000	       -0.691166	        0.195600
        1.120000	       -0.681869	        0.200350
        1.130000	       -0.672296	        0.205210
        1.140000	       -0.662445	        0.210179
        1.150000	       -0.652317	        0.215257
        1.160000	       -0.641912	        0.220445
        1.170000	       -0.631229	        0.225743
        1.180000	       -0.620269	        0.231150
        1.190000	       -0.609033	        0.236667
        1.200000	       -0.597519	        0.242293
        1.210000	       -0.585727	        0.248028
        1.220000	       -0.573659	        0.253874
        1.230000	       -0.561313	        0.259828
        1.240000	       -0.548690	        0.265892
        1.250000	       -0.535790	        0.272066
        1.260000	       -0.522613	        0.278349
        1.270000	       -0.509159	        0.284742
        1.280000	       -0.495427	        0.291244
        1.290000	       -0.481418	        0.297856
        1.300000	       -0.467132	        0.304577
        1.310000	       -0.452569	        0.311408
        1.320000	       -0.437729	        0.318348
        1.330000	       -0.422611	        0.325398
        1.340000	       -0.407216	        0.332557
        1.350000	       -0.391544	        0.339826
        1.360000	       -0.375595	        0.347204
        1.370000	       -0.359368	        0.354692
        1.380000	       -0.342865	        0.362289
        1.390000	       -0.326084	        0.369996
        1.400000	       -0.309026	        0.377812
        1.410000	       -0.291691	        0.385738
        1.420000	       -0.274078	        0.393774
        1.430000	       -0.256189	        0.401919
        1.440000	       -0.238022	        0.410173
        1.450000	       -0.219578	        0.418537
        1.460000	       -0.200857	        0.427010
        1.470000	       -0.181858	        0.435593
        1.480000	       -0.162583	        0.444286
        1.490000	       -0.143030	        0.453087
        1.500000	       -0.123200	        0.461999
        1.510000	       -0.103092	        0.471020
        1.520000	       -0.082708	        0.480150
        1.530000	       -0.062046	        0.489390
        1.540000	       -0.041108	        0.498740
        1.550000	       -0.019892	        0.508199
        1.560000	        0.001602	        0.517767
        1.570000	        0.023372	        0.527445
        1.580000	        0.045420	        0.537233
        1.590000	        0.067744	        0.547130
        1.600000	        0.090346	        0.557136
        1.610000	        0.113226	        0.567253
        1.620000	        0.136382	        0.577478
        1.630000	        0.159816	        0.587813
        1.640000	        0.183527	        0.598258
        1.650000	        0.207515	        0.608812
        1.660000	        0.231780	        0.619476
        1.670000	        0.256322	        0.630249
        1.680000	        0.281142	        0.641131
        1.690000	        0.306239	        0.652123
        1.700000	        0.331613	        0.663225
        1.710000	        0.357264	        0.674436
        1.720000	        0.383192	        0.685757
        1.730000	        0.409398	        0.697187
        1.740000	        0.435881	        0.708727
        1.750000	        0.462641	        0.720376
        1.760000	        0.489678	        0.732135
        1.770000	        0.516992	        0.744003
        1.780000	        0.544584	        0.755981
        1.790000	        0.572453	        0.768068
        1.800000	        0.600599	        0.780265
        1.810000	        0.629022	        0.792571
        1.820000	        0.657722	        0.804987
        1.830000	        0.686700	        0.817512
        1.840000	        0.715955	        0.830147
        1.850000	        0.745487	        0.842891
        1.860000	        0.775296	        0.855745
        1.870000	        0.805382	        0.868709
        1.880000	        0.835746	        0.881781
        1.890000	        0.866387	        0.894964
        1.900000	        0.897305	        0.908256
        1.910000	        0.928500	        0.921657
        1.920000	        0.959972	        0.935168
        1.930000	        0.991722	        0.948788
        1.940000	        1.023749	        0.962518
        1.950000	        1.056053	        0.976358
        1.960000	        1.088634	        0.990307
        1.970000	        1.121492	        1.004365
        1.980000	        1.154628	        1.018533
        1.990000	        1.188040	        1.032811
        2.000000	        1.221730	        1.047198
